<?xml version="1.0" encoding="iso-8859-1"?>
<!-- Generator: Adobe Illustrator 19.0.0, SVG Export Plug-In . SVG Version: 6.00 Build 0)  -->
<svg version="1.1" id="Layer_1" xmlns="http://www.w3.org/2000/svg" xmlns:xlink="http://www.w3.org/1999/xlink" x="0px" y="0px"
	 viewBox="0 0 511.98 511.98" style="enable-background:new 0 0 511.98 511.98;" xml:space="preserve">
<path style="fill:#424953;" d="M149.322,42.662c0-23.46,19.202-42.662,42.67-42.662h127.996c23.467,0,42.654,19.202,42.654,42.662
	v426.664c0,23.452-19.188,42.654-42.654,42.654H191.992c-23.468,0-42.67-19.202-42.67-42.654V42.662z"/>
<path style="opacity:0.2;enable-background:new    ;" d="M149.322,98.683v293.271c29.92,21.812,66.794,34.687,106.667,34.687
	c39.874,0,76.715-12.874,106.653-34.687V98.683C332.704,76.88,295.862,63.997,255.99,63.997
	C216.116,63.997,179.242,76.88,149.322,98.683z"/>
<g>
	<path style="opacity:0.2;fill:#FFFFFF;enable-background:new    ;" d="M319.987,0H191.992c-23.468,0-42.67,19.202-42.67,42.662
		v21.335c0-23.468,19.202-42.663,42.67-42.663h127.996c23.467,0,42.654,19.194,42.654,42.663V42.662
		C362.642,19.202,343.454,0,319.987,0z"/>
	<path style="opacity:0.2;fill:#FFFFFF;enable-background:new    ;" d="M191.992,511.98h127.996
		c23.467,0,42.654-19.202,42.654-42.654v-21.344c0,23.469-19.188,42.655-42.654,42.655H191.992c-23.468,0-42.67-19.187-42.67-42.655
		v21.344C149.322,492.778,168.523,511.98,191.992,511.98z"/>
</g>
<path style="fill:#FECD57;" d="M255.99,394.641c-39.904,0-77.403-15.531-105.589-43.717
	c-28.218-28.219-43.749-65.716-43.749-105.598c0-39.889,15.531-77.388,43.749-105.59c28.186-28.21,65.685-43.741,105.589-43.741
	c39.874,0,77.372,15.531,105.59,43.741c28.186,28.202,43.732,65.701,43.732,105.59c0,39.882-15.547,77.379-43.732,105.598
	C333.361,379.11,295.862,394.641,255.99,394.641z"/>
<g>
	<path style="fill:#F5BA45;" d="M255.99,95.996c-5.906,0-10.671,4.773-10.671,10.664s4.766,10.672,10.671,10.672
		c5.875,0,10.657-4.781,10.657-10.672C266.646,100.769,261.865,95.996,255.99,95.996z"/>
	<path style="fill:#F5BA45;" d="M255.99,373.329c-5.906,0-10.671,4.766-10.671,10.656s4.766,10.656,10.671,10.656
		c5.875,0,10.657-4.766,10.657-10.656S261.865,373.329,255.99,373.329z"/>
	<path style="fill:#F5BA45;" d="M181.32,116.003c-5.109,2.945-6.859,9.468-3.906,14.57c2.953,5.101,9.468,6.851,14.578,3.906
		c5.094-2.945,6.844-9.469,3.906-14.57C192.945,114.808,186.428,113.058,181.32,116.003z"/>
	<path style="fill:#F5BA45;" d="M319.987,356.174c-5.109,2.938-6.859,9.469-3.906,14.562c2.938,5.108,9.467,6.858,14.561,3.905
		c5.094-2.938,6.844-9.468,3.906-14.562C331.611,354.97,325.079,353.237,319.987,356.174z"/>
	<path style="fill:#F5BA45;" d="M141.228,166.759c-5.109-2.945-11.625-1.203-14.578,3.898c-2.938,5.102-1.188,11.625,3.906,14.57
		c5.109,2.953,11.625,1.203,14.578-3.898C148.088,176.227,146.338,169.704,141.228,166.759z"/>
	<path style="fill:#F5BA45;" d="M381.389,305.426c-5.094-2.952-11.623-1.203-14.561,3.906c-2.938,5.094-1.188,11.625,3.906,14.562
		c5.092,2.938,11.623,1.188,14.561-3.905C388.25,314.894,386.5,308.363,381.389,305.426z"/>
	<path style="fill:#F5BA45;" d="M117.323,234.655c-5.891,0-10.672,4.781-10.672,10.671s4.781,10.664,10.672,10.664
		c5.89,0,10.671-4.773,10.671-10.664S123.213,234.655,117.323,234.655z"/>
	<path style="fill:#F5BA45;" d="M394.639,234.655c-5.891,0-10.656,4.781-10.656,10.671s4.766,10.664,10.656,10.664
		s10.672-4.773,10.672-10.664S400.53,234.655,394.639,234.655z"/>
	<path style="fill:#F5BA45;" d="M130.557,305.426c-5.094,2.938-6.844,9.469-3.906,14.562c2.953,5.093,9.468,6.843,14.578,3.905
		c5.109-2.937,6.859-9.468,3.906-14.562C142.18,304.222,135.665,302.473,130.557,305.426z"/>
	<path style="fill:#F5BA45;" d="M381.389,185.227c5.109-2.945,6.859-9.469,3.906-14.57c-2.938-5.101-9.469-6.843-14.561-3.898
		c-5.094,2.945-6.844,9.468-3.906,14.57C369.767,186.43,376.297,188.18,381.389,185.227z"/>
	<path style="fill:#F5BA45;" d="M191.992,356.174c-5.109-2.937-11.625-1.203-14.578,3.906c-2.953,5.094-1.203,11.624,3.906,14.562
		c5.109,2.953,11.625,1.203,14.578-3.905C198.835,365.642,197.085,359.111,191.992,356.174z"/>
	<path style="fill:#F5BA45;" d="M319.987,134.479c5.092,2.945,11.623,1.195,14.561-3.906c2.938-5.102,1.188-11.625-3.906-14.57
		s-11.623-1.195-14.561,3.906C313.129,125.011,314.879,131.534,319.987,134.479z"/>
</g>
<path style="fill:#424953;" d="M323.861,298.114L323.861,298.114l-57.215-57.209v-80.911c0-5.89-4.781-10.663-10.657-10.663
	c-5.906,0-10.671,4.773-10.671,10.663v85.333c0,2.945,1.203,5.609,3.109,7.539l0,0l60.342,60.342l0,0
	c4.172,4.156,10.938,4.156,15.092,0C328.017,309.035,328.017,302.286,323.861,298.114z"/>
<path style="fill:#F5BA45;" d="M255.99,85.332c-88.372,0-159.994,71.63-159.994,159.994c0,88.348,71.623,160.002,159.994,160.002
	c88.356,0,159.995-71.654,159.995-160.002C415.983,156.963,344.345,85.332,255.99,85.332z M354.033,343.362
	c-12.734,12.749-27.578,22.749-44.076,29.732c-17.094,7.234-35.248,10.891-53.967,10.891c-18.734,0-36.904-3.656-53.966-10.891
	c-16.516-6.983-31.343-16.983-44.092-29.732c-12.75-12.734-22.75-27.562-29.718-44.061c-7.219-17.093-10.89-35.249-10.89-53.975
	c0-18.734,3.671-36.889,10.89-53.967c6.968-16.515,16.968-31.343,29.718-44.084c12.749-12.742,27.577-22.742,44.092-29.726
	c17.062-7.227,35.232-10.891,53.966-10.891c18.719,0,36.874,3.664,53.967,10.891c16.498,6.984,31.342,16.984,44.076,29.726
	c12.734,12.741,22.732,27.569,29.732,44.084c7.219,17.078,10.875,35.233,10.875,53.967c0,18.726-3.656,36.882-10.875,53.975
	C376.764,315.801,366.767,330.628,354.033,343.362z"/>
<g>
</g>
<g>
</g>
<g>
</g>
<g>
</g>
<g>
</g>
<g>
</g>
<g>
</g>
<g>
</g>
<g>
</g>
<g>
</g>
<g>
</g>
<g>
</g>
<g>
</g>
<g>
</g>
<g>
</g>
</svg>
