<?xml version="1.0" encoding="iso-8859-1"?>
<!-- Generator: Adobe Illustrator 19.0.0, SVG Export Plug-In . SVG Version: 6.00 Build 0)  -->
<svg version="1.1" id="Layer_1" xmlns="http://www.w3.org/2000/svg" xmlns:xlink="http://www.w3.org/1999/xlink" x="0px" y="0px"
	 viewBox="0 0 496.2 496.2" style="enable-background:new 0 0 496.2 496.2;" xml:space="preserve">
<path style="fill:#EBE3CB;" d="M0,248.1C0,111.1,111.1,0,248.1,0s248.1,111.1,248.1,248.1S385.1,496.2,248.1,496.2S0,385.1,0,248.1z
	"/>
<path style="fill:#0E5066;" d="M211.1,361.3c0.1,6.1,16.6,14.7,37,14.7s36.9-5.2,37-13l0,0l0.2-231.2l-74.1-1.4L211.1,361.3z"/>
<path style="fill:#14708F;" d="M211.1,129.4c0-7.7,16.6-13.9,37-13.9c20.5,0,37,6.2,37,13.9s-16.6,13.9-37,13.9
	C227.7,143.4,211.1,137.1,211.1,129.4z"/>
<path style="fill:#F26101;" d="M375.9,182.4l-74.1-1.4l-0.3,178.8l-0.3-0.5v0.1v3.5h0.5c0.1,7.9,16.6,13.9,37,13.9s36.9-6,37-13.9
	l0,0L375.9,182.4z"/>
<path style="fill:#F28238;" d="M301.7,180.1c0-7.7,16.6-13.9,37-13.9c20.5,0,37,6.2,37,13.9s-16.6,13.9-37,13.9
	C318.3,194.1,301.7,187.8,301.7,180.1z"/>
<path style="fill:#2BAA9C;" d="M116.3,361.3c0.1,6.1,17,13.1,37.4,13.1s37.4-6.3,37.4-14.2V360l-0.2-179.1l-74.5-0.6L116.3,361.3z"
	/>
<path style="fill:#32C7B7;" d="M116.3,180.1c0-7.7,16.6-13.9,37-13.9c20.5,0,37,6.2,37,13.9s-16.6,13.9-37,13.9
	C132.9,194.1,116.3,187.8,116.3,180.1z"/>
<g>
</g>
<g>
</g>
<g>
</g>
<g>
</g>
<g>
</g>
<g>
</g>
<g>
</g>
<g>
</g>
<g>
</g>
<g>
</g>
<g>
</g>
<g>
</g>
<g>
</g>
<g>
</g>
<g>
</g>
</svg>
