<?xml version="1.0" encoding="iso-8859-1"?>
<!-- Generator: Adobe Illustrator 17.1.0, SVG Export Plug-In . SVG Version: 6.00 Build 0)  -->
<!DOCTYPE svg PUBLIC "-//W3C//DTD SVG 1.1//EN" "http://www.w3.org/Graphics/SVG/1.1/DTD/svg11.dtd">
<svg version="1.1" id="Capa_1" xmlns="http://www.w3.org/2000/svg" xmlns:xlink="http://www.w3.org/1999/xlink" x="0px" y="0px"
	 viewBox="0 0 374 374" style="enable-background:new 0 0 374 374;" xml:space="preserve">
<g>
	<path d="M122.796,206.757l31.537,22.417c4.482,3.186,9.67,4.728,14.821,4.728c7.507,0,14.934-3.276,19.972-9.51l44.351-54.885
		c5.207-6.443,4.204-15.888-2.239-21.095c-6.445-5.208-15.888-4.206-21.095,2.239l-41.773,51.695l-28.194-20.04
		c-6.753-4.8-16.117-3.216-20.917,3.536C114.46,192.593,116.043,201.958,122.796,206.757z"/>
	<path d="M297.456,155H286v-44.604C286,96.611,275.221,85,261.435,85H250.16L238.563,8.769C237.783,3.612,233.086,0,227.871,0
		H125.426c-5.215,0-9.911,3.612-10.692,8.768L103.137,85H91.862C78.077,85,67,96.611,67,110.396v168.269
		C67,292.451,78.077,304,91.862,304h11.846l10.924,61.344c0.898,5.076,5.639,8.656,10.795,8.656h102.444
		c5.155,0,9.896-3.58,10.794-8.656L249.589,304h11.846C275.221,304,286,292.451,286,278.666V228h11.456
		c5.514,0,9.544-4.745,9.544-10.259v-52.663C307,159.564,302.97,155,297.456,155z M256,274H97V115h159V274z"/>
</g>
<g>
</g>
<g>
</g>
<g>
</g>
<g>
</g>
<g>
</g>
<g>
</g>
<g>
</g>
<g>
</g>
<g>
</g>
<g>
</g>
<g>
</g>
<g>
</g>
<g>
</g>
<g>
</g>
<g>
</g>
</svg>
